<svg xmlns="http://www.w3.org/2000/svg" version="1.1" baseProfile="full" width="226" height="226" viewBox="0 0 226 226">
    <style>@font-face{font-family:'MyriadPro';font-style:normal;font-weight:bold;src:local('MyriadPro'), url('https://skjode.dk/templates/softwarelab_joomla_base/fonts/MYRIADPRO-BOLD.woff') format('woff')}
    </style>
    <path d="M250 1715 l0 -545 470 0 470 0 -2 233 -3 232 -232 3 -233 2 0 75 0 75 310 0 310 0 0 -385 0 -385 -545 0 -545 0 0 -80 0 -80 625 0 625 0 0 545 0 545 -470 0 -470 0 0 -235 0 -235 235 0 235 0 0 -75 0 -75 -310 0 -310 0 0 385 0 385 545 0 545 0 0 80 0 80 -625 0 -625 0 0 -545z" transform="translate(25,226) scale(.1,-.1)" fill="#00338D" style="transform:translate(25,226) scale(.1,-.1)">
    </path>
    <text x="25" y="200" style="font-size:55px;font-weight:bold;font-family:'MyriadPro'" fill="black">Skjøde
    </text>
</svg>